<svg width="85" height="85" viewBox="0 0 85 85" fill="none" xmlns="http://www.w3.org/2000/svg">
<path d="M77.8898 0H6.77747C3.03451 0 0.000244141 3.03427 0.000244141 6.77722V77.8896C0.000244141 81.6325 3.03451 84.6668 6.77747 84.6668H77.8898C81.6328 84.6668 84.667 81.6325 84.667 77.8896V6.77722C84.667 3.03427 81.6328 0 77.8898 0Z" fill="#0C54A0"/>
<path d="M78.7674 42.3337C78.7674 62.4557 62.4553 78.7673 42.3334 78.7673C22.2116 78.7673 5.89978 62.4557 5.89978 42.3337C5.89978 22.2119 22.2116 5.8999 42.3334 5.8999C62.4553 5.8999 78.7674 22.2119 78.7674 42.3337V42.3337Z" fill="#FFF01E"/>
<path d="M39.4929 35.8779H31.9306L23.1146 44.9026V26.5835H16.3459V57.9804H23.1146V48.078L31.5959 57.9804H40.1615L29.6741 45.8634L39.4929 35.8779Z" fill="#0C54A0"/>
<path d="M44.6733 33.8301C43.6423 33.8301 42.7652 33.4689 42.0411 32.7442C41.3162 32.0205 40.9547 31.1426 40.9547 30.1122C40.9547 29.0816 41.3163 28.2046 42.0411 27.4797C42.7651 26.7561 43.6423 26.3936 44.6733 26.3936C45.7035 26.3936 46.5807 26.7561 47.3055 27.4797C48.0296 28.2046 48.3915 29.0816 48.3915 30.1122C48.3915 31.1426 48.0296 32.0204 47.3055 32.7442C46.5807 33.469 45.7035 33.8301 44.6733 33.8301Z" fill="#F52D0E"/>
<path d="M48.0574 57.9804H41.2887V35.8779H48.0574V57.9804Z" fill="#0C54A0"/>
<path d="M68.3213 41.5183V35.8778H62.1376V26.5835H55.3689V35.8778H50.8984V41.5183H55.3689V51.2538C55.3689 53.566 56.044 55.3139 57.3955 56.4973C58.7465 57.6817 60.7447 58.273 63.3912 58.273C64.0313 58.273 64.8253 58.2105 65.773 58.0851C66.7194 57.9597 67.4996 57.7994 68.1127 57.6043V52.131C67.5548 52.2985 67.0398 52.4167 66.5666 52.4862C66.0926 52.556 65.5913 52.5906 65.0624 52.5906C63.9763 52.5906 63.2173 52.3891 62.7853 51.9846C62.3531 51.5812 62.1377 50.892 62.1377 49.9166V41.5183H68.3214H68.3213Z" fill="#0C54A0"/>
</svg>
