<svg id="Слой_1" data-name="Слой 1" xmlns="http://www.w3.org/2000/svg" viewBox="0 0 127.48 20.25"><defs><style>.cls-1,.cls-2{fill:#1b1918;}.cls-1,.cls-3{fill-rule:evenodd;}.cls-3{fill:#0095d8;}</style></defs><polygon class="cls-1" points="31.4 8.31 29.99 8.31 29.99 1.41 26.59 1.41 26.59 8.31 25.18 8.31 25.18 0 31.4 0 31.4 8.31"/><path class="cls-1" d="M66.63,20a2.75,2.75,0,1,0,2.74,2.75A2.75,2.75,0,0,0,66.63,20Zm0,6.9a4.16,4.16,0,1,1,4.16-4.15A4.15,4.15,0,0,1,66.63,26.93Z" transform="translate(-22.08 -18.62)"/><polygon class="cls-1" points="78.49 0 78.49 6.89 75.84 6.89 75.84 0 74.43 0 74.43 6.89 71.78 6.89 71.78 0 70.37 0 70.37 8.31 79.91 8.31 79.91 0 78.49 0"/><polygon class="cls-1" points="109.8 0 109.8 3.35 106.31 3.35 106.31 0 104.89 0 104.89 8.31 106.31 8.31 106.31 4.76 109.8 4.76 109.8 8.31 111.22 8.31 111.22 0 109.8 0"/><polygon class="cls-1" points="102 0 102 3.35 98.52 3.35 98.52 0 97.1 0 97.1 8.31 98.52 8.31 98.52 4.76 102 4.76 102 8.31 103.42 8.31 103.42 0 102 0"/><polygon class="cls-1" points="95.66 1.41 95.66 0 89.67 0 89.67 8.31 95.66 8.31 95.66 6.89 91.09 6.89 91.09 4.76 94.95 4.76 94.95 3.35 91.09 3.35 91.09 1.41 95.66 1.41"/><rect class="cls-2" x="67.15" width="1.41" height="8.31"/><path class="cls-1" d="M148.15,22.61h-3.46V20h3.46Zm-4.88-4V24h1.59l-1.59,2.9h1.52l1.59-2.9h1.77v2.9h1.41V18.62Z" transform="translate(-22.08 -18.62)"/><path class="cls-1" d="M148.15,33.31h-3.46V30.74h3.46Zm-4.88-4v5.41h1.59l-1.59,2.9h1.52l1.59-2.9h1.77v2.9h1.41V29.32Z" transform="translate(-22.08 -18.62)"/><polygon class="cls-1" points="56.92 0 56.92 0 56.92 0 54.2 2.73 51.47 0 51.47 0 50.06 0 50.06 8.31 51.47 8.31 51.47 2 54.19 4.72 54.2 4.71 54.2 4.72 56.92 2 56.92 8.31 58.33 8.31 58.33 0 56.92 0"/><polygon class="cls-1" points="79.97 10.7 73.31 10.7 73.31 12.12 75.93 12.12 75.93 19.01 77.35 19.01 77.35 12.12 79.97 12.12 79.97 10.7"/><polygon class="cls-1" points="46.89 10.7 40.24 10.7 40.24 12.12 42.86 12.12 42.86 19.01 44.27 19.01 44.27 12.12 46.89 12.12 46.89 10.7"/><path class="cls-1" d="M73,30.74a2.74,2.74,0,1,0,2.74,2.74A2.74,2.74,0,0,0,73,30.74Zm0,6.89a4.16,4.16,0,1,1,4.16-4.15A4.15,4.15,0,0,1,73,37.63Z" transform="translate(-22.08 -18.62)"/><polygon class="cls-1" points="110.88 17.6 110.88 10.7 109.46 10.7 109.46 17.6 106.03 17.6 106.03 10.7 104.62 10.7 104.62 19.01 110.59 19.01 110.59 20.25 112 20.25 112 17.6 110.88 17.6"/><path class="cls-1" d="M52.29,34H49.52l1.25-3.21h1.52Zm0-4.63H49.8l-3.23,8.31h1.52L49,35.36h3.32v2.27h1.42V29.32Z" transform="translate(-22.08 -18.62)"/><path class="cls-1" d="M92.87,34H90.09l1.25-3.21h1.53Zm-2.49-4.63h0l-3.23,8.31h1.52l.88-2.27h3.33v2.27h1.41V29.32Z" transform="translate(-22.08 -18.62)"/><path class="cls-1" d="M123.75,34H121l1.25-3.21h1.53Zm-2.49-4.63h0L118,37.63h1.51l.89-2.27h3.32v2.27h1.41V29.32Z" transform="translate(-22.08 -18.62)"/><path class="cls-1" d="M140.18,23.25h-2.77L138.66,20h1.52Zm-2.49-4.63h0l-3.23,8.31H136l.87-2.27h3.33v2.27h1.42V18.62Z" transform="translate(-22.08 -18.62)"/><polygon class="cls-1" points="84.4 0 81.17 8.31 82.68 8.31 85.36 1.41 86.89 1.41 86.89 8.31 88.31 8.31 88.31 0 84.4 0"/><polygon class="cls-1" points="63.07 10.66 63.07 10.66 60.35 13.38 57.62 10.66 56.21 10.66 56.21 18.96 57.62 18.96 57.62 12.66 60.34 15.37 60.35 15.36 60.36 15.37 63.07 12.66 63.07 18.96 64.48 18.96 64.48 10.66 63.07 10.66"/><path class="cls-1" d="M60.5,36.22H56.88V34.09H60.5Zm-3.62-5.48h2.2v1.93h-2.2Zm3.62,1.93V29.32h-5v8.31h6.45v-5Z" transform="translate(-22.08 -18.62)"/><polygon class="cls-1" points="93.85 14.05 93.85 10.74 89.51 10.74 89.51 12.15 92.44 12.15 92.44 14.05 90.6 14.05 90.6 15.46 93.84 15.46 93.84 17.6 88.81 17.6 88.81 19.01 95.26 19.01 95.26 14.05 93.85 14.05"/><path class="cls-3" d="M38.09,31.43l-4.55-10h4.55Zm-6.5.91,1.94-4.26,1.95,4.26Zm-4.15,2.47H24.9V21.45h8.63ZM22.08,18.62v19h7.1l1.16-2.54h6.39l1.16,2.54h3v-19Z" transform="translate(-22.08 -18.62)"/><polygon class="cls-1" points="118.19 10.7 118.19 13.28 114.22 15.87 114.22 10.7 112.81 10.7 112.81 19.01 114.22 19.01 114.22 17.55 118.19 14.97 118.19 19.01 119.6 19.01 119.6 10.7 118.19 10.7"/><polygon class="cls-1" points="86.27 10.7 86.27 13.28 82.31 15.87 82.31 10.7 80.89 10.7 80.89 19.01 82.31 19.01 82.31 17.55 86.27 14.97 86.27 19.01 87.69 19.01 87.69 10.7 86.27 10.7"/><path class="cls-1" d="M56.51,23.25V20H60v3.22Zm-1.42-4.63v8.31h1.42V24.66h4.87v-6Z" transform="translate(-22.08 -18.62)"/><path class="cls-1" d="M83.61,25.52V22.31h3.45v3.21Zm0-4.63V18.62H82.19v8.31h6.29v-6Z" transform="translate(-22.08 -18.62)"/></svg>