<svg width="130" height="33" viewBox="0 0 130 33" fill="none" xmlns="http://www.w3.org/2000/svg">
<path fill-rule="evenodd" clip-rule="evenodd" d="M130 1.16194C130 1.16194 127.583 0.87207 124.727 0.87207C121.944 0.87207 119.6 1.16194 119.6 1.16194V10.2204H130V1.16194Z" fill="#E4003E"/>
<path fill-rule="evenodd" clip-rule="evenodd" d="M130 22.5399H119.6V31.7433C119.6 31.7433 122.53 32.0331 124.873 32.0331C127.217 32.0331 130 31.6708 130 31.6708V22.5399Z" fill="#E4003E"/>
<path fill-rule="evenodd" clip-rule="evenodd" d="M113.374 1.16236H100.557L91.622 12.2499H87.4474V1.16236H76.3883V31.8161H87.4474V20.2938H91.4755L100.484 31.8161H114.18L100.777 15.5109L113.374 1.16236Z" fill="#242265"/>
<path fill-rule="evenodd" clip-rule="evenodd" d="M34.935 1.16236H0V31.8161H11.2056V9.85847H23.7294V31.8161H34.935V1.16236Z" fill="#242265"/>
<path fill-rule="evenodd" clip-rule="evenodd" d="M40.3547 9.27874L38.7435 1.16238C38.7435 1.16238 49.2166 0.365234 55.7349 0.365234C62.2532 0.365234 70.0898 1.16238 70.0898 1.16238C70.0898 1.16238 72.5067 7.39459 72.5067 16.1632C72.5067 24.9317 70.0165 31.8162 70.0165 31.8162C70.0165 31.8162 62.5462 32.6133 55.6617 32.6133C48.7772 32.6133 38.7435 31.8162 38.7435 31.8162L40.3547 23.6998C40.3547 23.6998 47.3857 24.2071 53.3913 24.2071C59.3969 24.2071 61.7405 23.6998 61.7405 23.6998C61.7405 23.6998 62.0335 22.178 62.18 20.4387H47.8251V12.6123H62.2532C62.1067 10.5832 61.8138 9.35121 61.8138 9.35121C61.8138 9.35121 56.9067 8.84394 52.7321 8.84394C48.4843 8.77147 40.3547 9.27874 40.3547 9.27874Z" fill="#242265"/>
</svg>
